PathFileType	4	(X/Y/Z)	5_2_48_p0_0-521_filt_butterworth.trc
DataRate	CameraRate	NumFrames	NumMarkers	Units	OrigDataRate	OrigDataStartFrame	OrigNumFrames
59.0	59.0	6	27	m	59.0	325	521
Frame#	Time	RHip			RKnee			RAnkle			RBigToe			RSmallToe			RHeel			LHip			LKnee			LAnkle			LBigToe			LSmallToe			LHeel			Neck			Head			Nose			RShoulder			RElbow			RWrist			RThumb			RIndex			RPinky			LShoulder			LElbow			LWrist			LThumb			LIndex			LPinky			
		X1	Y1	Z1	X2	Y2	Z2	X3	Y3	Z3	X4	Y4	Z4	X5	Y5	Z5	X6	Y6	Z6	X7	Y7	Z7	X8	Y8	Z8	X9	Y9	Z9	X10	Y10	Z10	X11	Y11	Z11	X12	Y12	Z12	X13	Y13	Z13	X14	Y14	Z14	X15	Y15	Z15	X16	Y16	Z16	X17	Y17	Z17	X18	Y18	Z18	X19	Y19	Z19	X20	Y20	Z20	X21	Y21	Z21	X22	Y22	Z22	X23	Y23	Z23	X24	Y24	Z24	X25	Y25	Z25	X26	Y26	Z26	X27	Y27	Z27	
325	5.508474576271187	0.3603430673432393	0.5470244771091413	0.7811688830514889	0.38750381824328917	0.6447133182604768	1.2416411726666738	0.38329633231665217	0.8269673654440105	1.7034367220778222	0.3892766555625399	0.5693913567638795	1.6620436481252672	0.4254340879890235	0.6274149857986588	1.6781064393103762	0.3713378760071197	0.8662175234697354	1.7446025414356399	0.16563436714938568	0.5181056210126873	0.8122907075452199	0.18394805466958536	0.6137621867892401	1.2570988188345036	0.17604887400993993	0.7638227357215712	1.6875144257152142	0.21134707136266667	0.5508651609924395	1.6668152376424152	0.15863550700058804	0.6101071796474954	1.6808892765783137	0.1663332304321813	0.9072620398615745	1.7735055733173364	0.22817596815354196	0.48553859188022563	0.2899071424783284	0.21949832711361528	0.42088652522585124	0.0446038053396687	0.24669348814040937	0.3591174806814213	0.18979177402858613	0.3589364895746692	0.550436113333445	0.3209526250579499	0.521731024427659	0.30246554523340674	0.4057034112586714	0.4166495384896072	0.15055147121965679	0.26218343076846645	0.32730505732601367	0.16902641045764388	0.23030891276926296	0.3387563235693501	0.12514123083878234	0.21736591224753662	0.37049480009696184	0.12925503049620568	0.2307648998792768	0.09483265555626019	0.44440731809738687	0.3787757430601765	0.04920364643422346	0.48169194576897767	0.6306927423541238	0.09775171248618078	0.41900112341113177	0.8510203483700136	0.1317865050761276	0.44365575843211424	0.9502151554507083	0.1222160530122709	0.43029935552093973	0.9645110453655937	0.07368214837483715	0.44544234035879315	0.9593436166702584
326	5.52542372881356	0.3603300468957039	0.5469381386636831	0.7811602396297209	0.3892135615112316	0.6450045285279695	1.2404873135735683	0.38328319096716	0.8270353960914674	1.7033931278026069	0.38893073560338454	0.5703000670809933	1.662292401758664	0.42508018325270935	0.6297875076295125	1.6781982806350397	0.37069572657894506	0.8661293187124793	1.7445649428250454	0.1664670367307214	0.5164279830780844	0.8124518649314835	0.184457672386728	0.6137434678353498	1.2561692181764896	0.17624482814040715	0.7696570471706293	1.6877639630617778	0.2122767962878257	0.5497611595951576	1.665628521338484	0.15874756907352622	0.6123584222042786	1.6810335491547541	0.16644980381183108	0.9108641929301846	1.7739721636732857	0.2277134280604985	0.48230534747050813	0.29164804936170435	0.2194997131017049	0.4211313090100654	0.04618817273372994	0.2472222188538578	0.3591617098065605	0.1906672598872773	0.3588976915669103	0.550648491667716	0.321010746993861	0.5258647322247435	0.3036308235936753	0.40679054284841665	0.42061083813886785	0.1599903552133526	0.26490649843131436	0.3293159138080369	0.17366434551473756	0.22992487228517478	0.3433543349185508	0.1368608526390757	0.2169577666009857	0.3733746897612534	0.13943379335563902	0.2299211491059565	0.09480169452456177	0.4443891041828917	0.37880290346183276	0.04876066445222802	0.4830226651439879	0.6314495114833407	0.08998449426354563	0.4211948277815837	0.8537086253773125	0.1270604502108006	0.44350290968881895	0.9506335192304328	0.11751615942080315	0.43380220230829925	0.9666464548977246	0.0641422313411201	0.46177151365146457	0.9648065854256426
327	5.5423728813559325	0.360653204361686	0.5480750908576479	0.7816640545383262	0.39048085793012766	0.6452318031895152	1.2400496376451473	0.3833682792315415	0.8270025620184611	1.7028892436546892	0.38883382773948505	0.5719940140377381	1.662756449484486	0.4258772354402859	0.6288875363830121	1.6771636469884899	0.36848835574373523	0.8659721968386811	1.7444819170032404	0.1666594323810457	0.5160114625158765	0.812967141935218	0.18429974976168342	0.6135142551922294	1.256229622133134	0.1775372355532905	0.7741215580096166	1.6879378730702161	0.2133702959785862	0.549230392646382	1.6641978768678185	0.15863972298270088	0.6100752327519058	1.6809611348122524	0.16720270110261998	0.9129182222113161	1.774677419082161	0.22720646911497341	0.478747542931674	0.2932206566906948	0.2195689473388813	0.42177840030922376	0.04713401031397319	0.24777864643438935	0.36389384769805605	0.19220813880534568	0.35888278764891757	0.5510292989702831	0.32109052600391796	0.5293813998574505	0.30705376665115497	0.40867234808648256	0.42739897329149656	0.1739857375796455	0.26935185291893	0.3311563625803959	0.18580338527779186	0.2294118922665721	0.34727496915453987	0.1520987682013819	0.21725282763256543	0.376837473324978	0.1480196030145678	0.23045459810483043	0.09476510892470905	0.44436072977655783	0.37882959770175395	0.04862331282211504	0.4827248799262701	0.6322371003925966	0.08058618834067079	0.4267116670739411	0.8567579724264862	0.12476811260109949	0.4433070207106166	0.9504056595436802	0.1135009033370621	0.4363273469540119	0.9677417117451959	0.055448404077264146	0.47862283316418947	0.9702384316538929
328	5.559322033898305	0.3614878914772469	0.5512398049792426	0.7831421767646171	0.3909556614218482	0.6453547946200149	1.2400777055693042	0.383587325983337	0.8267947027568384	1.7015542184395365	0.3890413669387083	0.5740376478719893	1.6633682510997172	0.42666693332214295	0.6274093168199056	1.6769746123108962	0.3665614203289915	0.8659419334170708	1.744598324724926	0.1666189973630327	0.5158479202577737	0.8139696199333968	0.18411608005241537	0.6131689740399089	1.2571134843026517	0.17950099526561616	0.7749994692943486	1.6884602727653535	0.21455917265846805	0.5485822528621502	1.663079949508488	0.15839519440527375	0.6051045740338776	1.680725971866028	0.16861521804788396	0.9142763265406247	1.7760079711425012	0.22668034817690186	0.47489639805357353	0.2942683771503005	0.2197622519317209	0.4224473436344933	0.047387677110824124	0.2487185150796434	0.3699100695904478	0.19414323658982718	0.3589118560976945	0.5514322563534552	0.3211319293032426	0.5322587332757064	0.31182660961309994	0.4115162343740818	0.43650042856819404	0.18770863384754424	0.2740148716935218	0.33507536091296797	0.2002219895089431	0.2290900682164829	0.3508393318460853	0.16488300571644499	0.21954605594373755	0.3808228068456122	0.1538983838720948	0.23324168139127976	0.09476791821810403	0.44429727052614787	0.37885986270846794	0.04853983618195685	0.4820447824455544	0.6326458125272009	0.06920831211039058	0.4382173250831524	0.8602379325331819	0.12265325340414904	0.44314349084410914	0.9501845509655569	0.11038193998604212	0.4366157873589089	0.9682164554030408	0.0486093409716679	0.4923925215826904	0.9747782939577911
329	5.576271186440678	0.3626269360027734	0.5557014834852482	0.7854511637794772	0.3909359214551982	0.6454276767218498	1.24025502891107	0.38386257509341853	0.8264676256004982	1.6997428674796426	0.3895580465661527	0.5764844643411733	1.6645985201845228	0.426689587691987	0.6271177335952466	1.6782784604746277	0.3663832515376777	0.865730583918614	1.7452314491011252	0.16607807939165764	0.5159441523677405	0.8151315336268911	0.18408899619848024	0.6128739170800853	1.2579344069320968	0.18102836723863402	0.7726198344345863	1.6889473053407738	0.21592208607446	0.5464916045490507	1.662088456113247	0.1581998855830942	0.6007545736805142	1.6804120871502548	0.1702462297158453	0.9152911692033392	1.7772727567274644	0.22617360453227797	0.4709235779984182	0.29474171454531906	0.2200613905163431	0.4220742023831685	0.04744085060774474	0.25008189642256656	0.37226934567592024	0.19607833542519965	0.35915023516563416	0.5519094683556891	0.32114352076084907	0.5342864007615963	0.31603613409465703	0.41516211681150955	0.44564499136679814	0.19622526559117393	0.27741545034241083	0.3421455009663073	0.20991024462696678	0.2294051254222731	0.35580997006968135	0.1713858280184116	0.22378092540686223	0.3851208819410522	0.1567336558767802	0.23832694746158412	0.0948271291915089	0.4442080675373306	0.37882217720864025	0.048116057257137364	0.48141791017584357	0.6327973276425352	0.057211946462787065	0.4539733119697603	0.8639825390664754	0.1197500039646175	0.44327741835083834	0.9504709842973796	0.10779042390921942	0.4352915049176648	0.9685222471742472	0.044100925657356405	0.50132844021359	0.9783414729444216
330	5.593220338983051	0.3635372691350446	0.559513268922665	0.7875673778715445	0.39080781577114104	0.645455967782158	1.2404234809245496	0.38405564016560817	0.8260594745601015	1.698334611761732	0.3903030359700641	0.5794676134821023	1.6665784272976103	0.4260394006927982	0.6277973490130816	1.6803371654905441	0.3674628647237134	0.8651345829215307	1.7463578525563044	0.1644383811225005	0.5173552973216294	0.8157985715115839	0.1841231928752743	0.6125337146368628	1.2579097371459222	0.18133231959033452	0.7690887528029499	1.6888942460579481	0.21715362643928338	0.5444290915482018	1.6621375134580885	0.15818859179476108	0.598590970546579	1.6801652146922472	0.17131789692441854	0.915569190873939	1.7775675186502298	0.22578947684513279	0.4676882819912689	0.29485964453050134	0.2202010668980187	0.4195747639516088	0.04711100330445481	0.251660043970834	0.3673050118068219	0.19761581490473265	0.35974278630711104	0.5526675346120475	0.3212198106948342	0.5361725365188816	0.3204997193866696	0.41961944762333414	0.4527913293421644	0.19905634016863719	0.27944896285470183	0.3507984558962181	0.2109069954599374	0.23076353934664415	0.36193106590569596	0.17291424901848496	0.22785855640591884	0.38953930203769266	0.1577929415002805	0.24460655292856787	0.09481161365523665	0.4441011817647872	0.37867018379119766	0.047155182714209744	0.48071595448658694	0.6331649017268051	0.047790590846934766	0.4676270927625227	0.8670357413576909	0.11690387295487953	0.44416551064720916	0.9513643939497292	0.10511010821673505	0.43351603684663	0.9690616951284734	0.042010506913969556	0.5053104377880435	0.9810586953207776
